<svg id="Layer_1" data-name="Layer 1" xmlns="http://www.w3.org/2000/svg" viewBox="0 0 122.88 122.88"><defs><style>.cls-1{fill:#e5273a;}.cls-1,.cls-2{fill-rule:evenodd;}.cls-2{fill:#a71d2a;}</style></defs><title>corona</title><path class="cls-1" d="M64.13,14.73a46.71,46.71,0,0,1,13.06,2.64A16.85,16.85,0,0,0,79.64,13C80,11.43,79.3,10.37,79,8.9A5.26,5.26,0,0,1,79,5.56c1.74-3.72,11.36.26,10,4.12-.6,1.66-2.84,3-4.36,3.71A4.67,4.67,0,0,0,83,14.58c-.64.76-1.17,3.54-1.21,4.71a47,47,0,0,1,11,7.44c1.16-.82,3-1.79,3.94-3.12s.69-2.55.93-4a5.21,5.21,0,0,1,1.36-3.05c3-2.77,10.4,4.58,7.64,7.61-1.18,1.31-3.78,1.71-5.45,1.77a4.59,4.59,0,0,0-2,.46c-.89.46-2.44,2.83-2.93,3.89a46.54,46.54,0,0,1,7.4,11.1c1.38-.32,3.4-.53,4.81-1.38s1.61-2.09,2.41-3.38a5.23,5.23,0,0,1,2.41-2.3c3.86-1.4,7.87,8.2,4.16,10-1.59.75-4.15.13-5.71-.45a4.63,4.63,0,0,0-2-.34c-1,.09-3.31,1.67-4.17,2.46A46.58,46.58,0,0,1,108.18,59c1.4.23,3.35.81,5,.57s2.29-1.33,3.51-2.21a5.22,5.22,0,0,1,3.12-1.2c4.1.17,4.13,10.58,0,10.78-1.75.09-3.88-1.45-5.1-2.59A4.65,4.65,0,0,0,113,63.29c-1-.3-3.7.28-4.8.68a46.9,46.9,0,0,1-2.61,13.09c1.21.75,2.78,2,4.37,2.42s2.63-.35,4.1-.7a5.23,5.23,0,0,1,3.33.08c3.72,1.73-.22,11.36-4.08,10-1.66-.59-3-2.83-3.73-4.34a4.67,4.67,0,0,0-1.19-1.67c-.76-.63-3.51-1.15-4.69-1.2a46.39,46.39,0,0,1-7.43,11.09c.83,1.16,1.8,2.94,3.12,3.92s2.56.68,4.06.92a5.14,5.14,0,0,1,3,1.35c2.78,3-4.55,10.41-7.59,7.66-1.31-1.18-1.72-3.77-1.78-5.44a4.6,4.6,0,0,0-.47-2c-.46-.89-2.83-2.42-3.89-2.91a47,47,0,0,1-11.09,7.43c.33,1.38.54,3.39,1.39,4.8s2.11,1.61,3.4,2.4a5.18,5.18,0,0,1,2.3,2.41c1.42,3.85-8.17,7.89-9.94,4.18-.76-1.59-.15-4.14.43-5.71a4.61,4.61,0,0,0,.33-2c-.09-1-1.67-3.3-2.47-4.16A46.54,46.54,0,0,1,64,108.17c-.23,1.4-.81,3.35-.56,5s1.34,2.29,2.22,3.51a5.26,5.26,0,0,1,1.22,3.11c-.17,4.1-10.57,4.17-10.79.07-.09-1.76,1.44-3.89,2.58-5.11A4.65,4.65,0,0,0,59.76,113c.29-1-.3-3.72-.71-4.81A46.58,46.58,0,0,1,46,105.61c-.75,1.21-2,2.79-2.41,4.39s.36,2.62.71,4.09a5.2,5.2,0,0,1-.07,3.34c-1.71,3.72-11.36-.19-10-4.06.58-1.66,2.82-3,4.33-3.74a4.54,4.54,0,0,0,1.66-1.19c.64-.77,1.15-3.55,1.19-4.71a46.8,46.8,0,0,1-11.1-7.39c-1.15.83-3,1.81-3.92,3.15s-.67,2.55-.91,4.05a5.24,5.24,0,0,1-1.33,3.06c-3,2.78-10.43-4.52-7.69-7.57,1.17-1.31,3.77-1.73,5.43-1.8a4.6,4.6,0,0,0,2-.47c.89-.47,2.43-2.86,2.91-3.92a47.07,47.07,0,0,1-7.46-11c-1.38.33-3.41.55-4.82,1.41s-1.59,2.11-2.38,3.4a5.25,5.25,0,0,1-2.4,2.32C5.85,90.34,1.78,80.76,5.48,79c1.59-.77,4.15-.17,5.71.41a4.66,4.66,0,0,0,2,.33c1-.1,3.32-1.71,4.17-2.51a46.72,46.72,0,0,1-2.65-13.06c-1.4-.22-3.36-.8-5-.54S7.45,65,6.23,65.85a5.23,5.23,0,0,1-3.1,1.22C-1,66.92-1.07,56.51,3,56.28c1.76-.1,3.89,1.44,5.12,2.57a4.75,4.75,0,0,0,1.74,1.07c1,.29,3.75-.32,4.83-.73a46.82,46.82,0,0,1,2.52-13.08c-1.21-.74-2.8-2-4.41-2.41s-2.62.37-4.09.73a5.24,5.24,0,0,1-3.33-.06c-3.74-1.71.15-11.36,4-10,1.66.58,3.05,2.81,3.75,4.33a4.73,4.73,0,0,0,1.2,1.65c.78.64,3.58,1.14,4.74,1.17A46.77,46.77,0,0,1,26.45,30.4c-.84-1.15-1.83-2.95-3.17-3.92s-2.56-.67-4.05-.89a5.19,5.19,0,0,1-3.06-1.33c-2.8-3,4.47-10.44,7.54-7.71C25,17.72,25.45,20.31,25.52,22A4.83,4.83,0,0,0,26,24c.48.88,2.89,2.42,3.94,2.89a47,47,0,0,1,11-7.49c-.33-1.38-.56-3.41-1.42-4.82S37.42,13,36.12,12.18a5.16,5.16,0,0,1-2.32-2.4c-1.44-3.84,8.13-7.94,9.92-4.24.76,1.58.17,4.14-.4,5.71a4.62,4.62,0,0,0-.32,2c.1,1,1.72,3.32,2.52,4.17a46.38,46.38,0,0,1,13.64-2.73c.24-1.4.83-3.36.59-5s-1.31-2.29-2.2-3.52a5.22,5.22,0,0,1-1.19-3.12C56.55-1,67-1,67.15,3.07c.08,1.76-1.47,3.88-2.61,5.1A4.65,4.65,0,0,0,63.45,9.9c-.3,1,.28,3.74.68,4.83Z"/><path class="cls-2" d="M67.39,25.82a7.28,7.28,0,1,1-7.27,7.28,7.28,7.28,0,0,1,7.27-7.28ZM85.8,40.74a1.86,1.86,0,1,1-1.86,1.85,1.86,1.86,0,0,1,1.86-1.85ZM69.34,93.35a1.86,1.86,0,1,1-1.86,1.86,1.86,1.86,0,0,1,1.86-1.86ZM38.27,81.44a1.86,1.86,0,1,1-1.86,1.86,1.87,1.87,0,0,1,1.86-1.86Zm47.31-3.57a1.86,1.86,0,1,1-1.86,1.86,1.86,1.86,0,0,1,1.86-1.86Zm-9.64,3.84a3.44,3.44,0,1,1-3.43,3.43,3.44,3.44,0,0,1,3.43-3.43Zm-20.49-5a4.73,4.73,0,1,1-4.73,4.73,4.73,4.73,0,0,1,4.73-4.73ZM55.37,63.8a1.86,1.86,0,1,1-1.85,1.85,1.85,1.85,0,0,1,1.85-1.85ZM25.71,42.68a1.86,1.86,0,1,1-1.86,1.86,1.86,1.86,0,0,1,1.86-1.86ZM47.47,47a1.86,1.86,0,1,1-1.86,1.85A1.85,1.85,0,0,1,47.47,47Zm16.39,2a3.38,3.38,0,1,1-3.38,3.37A3.38,3.38,0,0,1,63.86,49Zm31.82,1.17a3.38,3.38,0,1,1-3.38,3.38,3.38,3.38,0,0,1,3.38-3.38ZM79.09,56.32A4.64,4.64,0,1,1,74.46,61a4.64,4.64,0,0,1,4.63-4.64Zm-46.37-.11a7.28,7.28,0,1,1-7.28,7.27,7.28,7.28,0,0,1,7.28-7.27Zm11.86-24.3a4.73,4.73,0,1,1-4.72,4.72,4.72,4.72,0,0,1,4.72-4.72Z"/></svg>