<?xml version="1.0" encoding="utf-8"?><svg version="1.1" id="Layer_1" xmlns="http://www.w3.org/2000/svg" xmlns:xlink="http://www.w3.org/1999/xlink" x="0px" y="0px" viewBox="0 0 105.78 122.88" style="enable-background:new 0 0 105.78 122.88" xml:space="preserve"><style type="text/css">.st0{fill-rule:evenodd;clip-rule:evenodd;}</style><g><path class="st0" d="M85.94,27.52C91.11,16.47,91.02,7.34,86.04,0L55.09,53.71l7.69,13.64L85.94,27.52L85.94,27.52z M19.84,27.52 C14.67,16.47,14.76,7.34,19.74,0l37.45,64.99c1.74,2.25,2.82,4.64,2.96,7.22c0.13,2.41-0.56,3.29-0.95,5.39 c-0.32,1.76-0.14,3.55,1.03,5.4l1.56,1.71c1.4,1.53,2.6,3.37,4.97,3.07c1.58-0.2,2.91-1.54,4.06-3.69c1.48-1.63,3.21-2.9,5.19-3.78 c1.92-0.85,4.07-1.34,6.48-1.45c7.55,0.39,14.08,3.91,18.98,12.41c5.94,9.68,5.26,17.86,0.85,25.18c-3.4,4.46-7.5,6.42-12.17,6.43 c-7.12,0.01-12.9-3.41-17.38-8.73c-2.84-3.37-5.2-7.42-7.68-11.93l-9.03-11.54L55,87.98L19.84,27.52L19.84,27.52z M53.11,67.8 c1.98,0,3.58,1.6,3.58,3.58c0,1.98-1.6,3.58-3.58,3.58c-1.97,0-3.58-1.6-3.58-3.58C49.53,69.4,51.13,67.8,53.11,67.8L53.11,67.8z M75.36,90.03c2.55-3.9,6.85-4.31,10.95-2.87c3.29,1.16,6.13,3.62,8.53,7.32c2.02,3.12,3.59,8.15,3.19,12.51 c-0.78,8.45-8.3,10.05-14.86,6.36c-2.92-1.64-5.24-4.07-6.92-7.37c-1.13-2.23-2.09-4.87-2.45-7.54 C73.4,95.49,73.73,92.51,75.36,90.03L75.36,90.03z M46.56,80.59c-0.17,0.79-0.5,1.59-1.01,2.4l-1.56,1.71 c-1.4,1.53-2.6,3.37-4.97,3.07c-1.58-0.2-2.91-1.54-4.06-3.69c-1.48-1.63-3.21-2.9-5.19-3.78c-1.92-0.85-4.07-1.34-6.48-1.45 c-7.55,0.39-14.08,3.91-18.98,12.41c-5.94,9.68-5.26,17.86-0.85,25.18c3.4,4.46,7.5,6.42,12.17,6.43 c7.12,0.01,12.9-3.41,17.38-8.73c2.84-3.37,5.2-7.42,7.68-11.93l10.63-13.58l-0.35-0.6l-0.11-0.18L46.56,80.59L46.56,80.59z M30.43,90.03c-2.55-3.9-6.85-4.31-10.95-2.87c-3.29,1.16-6.13,3.62-8.53,7.32C8.93,97.6,7.36,102.63,7.77,107 c0.78,8.45,8.3,10.05,14.86,6.36c2.92-1.64,5.24-4.07,6.92-7.37c1.13-2.23,2.09-4.87,2.45-7.54 C32.39,95.49,32.05,92.51,30.43,90.03L30.43,90.03z"/></g></svg>