<?xml version="1.0" encoding="utf-8"?><svg version="1.1" id="Layer_1" xmlns="http://www.w3.org/2000/svg" xmlns:xlink="http://www.w3.org/1999/xlink" x="0px" y="0px" viewBox="0 0 74.58 122.88" style="enable-background:new 0 0 74.58 122.88" xml:space="preserve"><g><path d="M26.89,85.72c3.06,1.6,6.52,2.44,9.91,2.49c3.06,0.05,6.03-0.55,8.57-1.8c0.29-0.19,0.57-0.38,0.84-0.59 c0.88-0.66,1.66-1.43,2.34-2.31c-0.59-1.03-1.09-2.11-1.51-3.25c-0.32-0.87-0.58-1.77-0.78-2.7c-3.23,1.15-6.5,1.73-9.71,1.68 c-1.99-0.03-3.96-0.3-5.87-0.82l-0.02,0l0,0c-1.01-0.27-2.01-0.6-2.98-1c-0.24,1.03-0.56,2.03-0.97,2.98 c-0.51,1.2-1.14,2.35-1.91,3.44C25.45,84.54,26.15,85.17,26.89,85.72L26.89,85.72z M51.7,82.61l0.04,0.02l0.01,0l0,0 c2.84,1.26,5.62,2.87,8.24,5.28c2.61,2.41,5.03,5.59,7.17,9.98c2.79,5.72,4.21,11.66,5.64,17.68l0.66,2.78l1.11,4.53h-3.55 l-0.91-3.72c-0.45-1.84-0.56-2.31-0.68-2.79c-1.39-5.83-2.76-11.59-5.38-16.97c-1.94-3.98-4.1-6.82-6.4-8.95 c-1.97-1.82-4.07-3.13-6.23-4.17c-2.05,2.07-4.65,3.53-7.5,4.4c-2.11,0.82-4.39,1.25-6.69,1.31c-3.43,0.08-6.91-0.68-9.97-2.3 c-1.89-0.78-3.69-1.8-5.32-3.04c-0.98,0.82-1.84,1.53-2.65,2.2c-8.24,6.81-11.75,9.72-14.6,22.84c-0.59,2.73-0.97,5.27-1.14,7.83 c-0.07,1.1-0.1,2.21-0.1,3.35H0c-0.01-1.2,0.03-2.39,0.11-3.57c0.18-2.76,0.58-5.47,1.2-8.35c3.1-14.3,6.89-17.43,15.78-24.78 c1.2-0.99,2.49-2.06,3.72-3.1c0.27-0.23,0.58-0.36,0.91-0.4c0.85-1.08,1.54-2.26,2.07-3.52c0.43-1.02,0.75-2.1,0.96-3.23 c-1.2-0.72-2.36-1.56-3.45-2.53c-4.47-3.96-7.59-7.2-9.6-10.94c-2.04-3.8-2.9-8.01-2.79-13.87l0.32-16.95 c0-0.18,0.04-0.35,0.09-0.52L5.38,29.9C4.8,17.4,12.04,9.93,21,6.33c3.27-1.31-2.2-8.46,5.31-5.71 c10.03,3.67,32.28,8.67,37.55,14.97c4.28,5.12,4.46,7.89,4.35,14.57c-0.03,2.17-0.37,4.07-1.37,4.78c-0.46,0.33-1.01,0.45-1.66,0.4 v14.5c0,8.03-2.87,14.74-7.28,19.71c-2.49,2.8-5.46,5.05-8.68,6.67c0.19,1.03,0.46,2.02,0.8,2.97 C50.46,80.39,51.02,81.53,51.7,82.61L51.7,82.61z M12.7,122.88c0.4-1.15,0.9-2.41,1.42-3.71c0.13-0.53,0.27-1.06,0.41-1.59 c0.85-3.13,1.91-6.2,3.24-9.45h0c0.26-0.62,0.87-1.06,1.58-1.07c0.95-0.01,1.73,0.76,1.74,1.71c0.03,2.36-1.64,6.45-3.24,10.36 l-0.41,1c-0.22,0.9-0.43,1.81-0.62,2.74H12.7L12.7,122.88z M57.96,122.88c-0.12-0.54-0.24-1.07-0.37-1.59 c-0.37-0.82-0.76-1.67-1.15-2.51c-2.29-4.96-4.52-9.78-2.18-11.13c0.05-0.03,0.11-0.06,0.17-0.09c0.86-0.41,1.89-0.04,2.3,0.82 c1.3,2.74,2.44,5.74,3.4,9c0.27,0.91,0.52,1.84,0.76,2.78c0.42,0.94,0.81,1.86,1.15,2.71H57.96L57.96,122.88z M19.82,58.18 c-0.04,0.29-0.17,0.57-0.38,0.78c0.73,8.28,5.08,13.39,10.47,15.61c2.29,0.94,4.77,1.37,7.25,1.31c2.48-0.07,4.94-0.63,7.2-1.67 c5.51-2.53,9.78-7.93,9.92-15.92c-5.81-2.83-11.63-3.97-17.44-3.82C31.19,54.61,25.51,55.97,19.82,58.18L19.82,58.18z M16.71,57.57 l-4.65-7.86c0.01,4.73,0.77,8.19,2.42,11.26c0.98,1.82,2.29,3.54,3.96,5.33C17.45,63.8,16.83,60.89,16.71,57.57L16.71,57.57z M12.15,44.66l6.57,11.12c6.01-2.34,12.03-3.79,18.07-3.95c6.12-0.16,12.25,1.02,18.37,3.95L62,44.49v-9.34h0 c-0.04-1.01-0.18-1.94-0.46-2.78c-0.26-0.81-0.64-1.52-1.16-2.13c-1.95-2.28-3.79-2.19-6.43-2.06c-0.24,0.01-0.48,0.02-0.81,0.04 c-10.41,0.46-17.24,0.45-22.78-0.04c-5.11-0.45-9.12-1.28-13.78-2.52c-0.44,1.03-0.95,2.04-1.55,3.03 c-0.76,1.26-1.65,2.46-2.66,3.61L12.15,44.66L12.15,44.66z M62,49.58l-5.07,8.37c-0.01,4.35-1.1,8.05-2.91,11.06 c0.52-0.49,1.02-1.01,1.5-1.56C59.45,63.04,62,57.04,62,49.84V49.58L62,49.58z M49.85,41.54c1.89,0,3.43,1.53,3.43,3.43 c0,1.89-1.53,3.43-3.43,3.43c-1.89,0-3.43-1.53-3.43-3.43C46.42,43.08,47.96,41.54,49.85,41.54L49.85,41.54z M23.99,41.54 c1.89,0,3.43,1.53,3.43,3.43c0,1.89-1.53,3.43-3.43,3.43c-1.89,0-3.43-1.53-3.43-3.43C20.57,43.08,22.1,41.54,23.99,41.54 L23.99,41.54z"/></g></svg>