<?xml version="1.0" encoding="utf-8"?><svg version="1.1" id="Layer_1" xmlns="http://www.w3.org/2000/svg" xmlns:xlink="http://www.w3.org/1999/xlink" x="0px" y="0px" viewBox="0 0 101.61 122.88" style="enable-background:new 0 0 101.61 122.88" xml:space="preserve"><style type="text/css">.st0{fill-rule:evenodd;clip-rule:evenodd;}</style><g><path class="st0" d="M56.92,54.1c-0.4-0.27-0.51-0.82-0.24-1.22c0.27-0.4,0.82-0.51,1.22-0.24c0.67,0.45,1.8,0.69,3,0.67 c1.13-0.02,2.27-0.27,3.09-0.8c0.41-0.26,0.95-0.14,1.21,0.27c0.26,0.41,0.14,0.95-0.27,1.21c-1.11,0.71-2.58,1.05-4.01,1.07 C59.4,55.09,57.89,54.75,56.92,54.1L56.92,54.1z M28.4,86.88l0.05,0.04c1.22-1.13,2.69-2.6,4-4.2c1.25-1.53,2.35-3.18,2.92-4.74 l-0.09-0.14c-1.65-1.65-3.17-3.6-4.56-5.81c-1.54-2.45-2.94-5.22-4.19-8.28c-0.56-0.17-1.08-0.37-1.58-0.6 c-0.71-0.33-1.36-0.73-1.96-1.18c-1.74-1.33-2.89-3.15-3.56-5.15c-0.74-2.23-0.88-4.7-0.58-6.97c0.16-1.17,0.48-2.18,0.97-3.04 c0.52-0.91,1.21-1.63,2.07-2.18c0.25-0.16,0.54-0.23,0.81-0.2c-0.48-2.51-0.41-4.91-0.31-7.73c0.27-7.37,2.14-13.26,7.94-18.37 c8.76-7.71,26.1-8.38,35.75-1.74c1.43,0.99,2.76,2.15,3.96,3.53c3.92,4.49,7.4,14.35,7.33,20.43c-0.02,1.41-0.24,2.84-0.73,4.29 c-0.02,0.14-0.05,0.3-0.09,0.48c1.06,0.67,1.89,1.48,2.49,2.4c0.9,1.38,1.3,2.97,1.2,4.64c-0.09,1.61-0.64,3.3-1.64,4.94 c-1.16,1.91-2.93,3.78-5.3,5.39c-1.97,4.59-4.69,9.19-7.96,12.96c-0.4,0.79-0.83,1.53-1.31,2.23c0.75,3.04,3.69,6.41,5.77,8.78 l0.16,0.18c7.34,2.19,14.28,5.6,19.86,13.08c5.21,6.99,7.62,14.88,11.78,22.92c-34.81,0-67.94,0.01-101.27,0 c-0.73-5.42-0.26-6.11,1.46-11.26C6.54,97.33,12.5,95.68,28.4,86.88L28.4,86.88z M36.94,80.07c-0.65,1.2-1.49,2.39-2.42,3.52 c-1.22,1.49-2.58,2.87-3.76,3.99c4.14,4.04,11.29,5.97,18.47,5.93c7.2-0.04,14.39-2.06,18.54-5.91l0,0l-0.01-0.01 c-1.78-2.04-4.16-4.76-5.43-7.52c-1.46,1.6-3.13,2.87-4.93,3.81c-2.35,1.23-4.92,1.89-7.49,1.96c-2.58,0.07-5.17-0.46-7.56-1.62 C40.38,83.26,38.53,81.88,36.94,80.07L36.94,80.07z M41.43,2.51c5.75-3.9,12.3-3.04,17.71,1.09c1.42,1.09,2.64,2.42,3.6,4.04 c0.82,1.38,2.25,4.2-0.42,4.63c-1.05,0.17-2.91-1.27-4.33-1.73c-1.83-0.59-3.72-0.97-5.58-1.17c-3.49-0.37-6.92-0.08-9.86,0.74 c-1.6,0.44-3.15,0.98-4.64,1.67c-0.7,0.32-2.11,1.26-2.5,0.05C34.5,9.03,39.36,3.91,41.43,2.51L41.43,2.51z M23.34,46.87 l-0.03,0.02c-0.49,0.31-0.88,0.73-1.18,1.25c-0.32,0.56-0.54,1.25-0.65,2.08c-0.25,1.9-0.14,3.94,0.47,5.77 c0.51,1.52,1.37,2.89,2.65,3.87c0.45,0.35,0.94,0.65,1.47,0.89c0.54,0.25,1.12,0.46,1.75,0.61c0.44,0.1,0.77,0.41,0.93,0.8l0,0 c0.97,2.43,2.02,4.66,3.16,6.69c-0.26-1.51-0.43-3.13-0.47-4.86c0-0.07,0-0.14,0.01-0.21l-4.8-10.49 c-0.59-0.91-1.14-1.83-1.65-2.76C24.27,49.23,23.73,48.03,23.34,46.87L23.34,46.87z M36.59,75.38c0.47,0.51,0.96,0.98,1.46,1.43 c1.99,1.79,3.95,3.05,5.86,3.86c3.52,1.48,6.92,1.39,10.07,0.23c3.24-1.19,6.26-3.52,8.92-6.47c0.29-0.32,0.57-0.64,0.85-0.97 c1.05-2.48,1.67-5.41,1.71-8.76c-5.26-2.56-10.53-3.59-15.79-3.46c-5.13,0.13-10.27,1.36-15.42,3.36 c-0.03,0.27-0.16,0.53-0.36,0.72C34.17,69.37,35.14,72.71,36.59,75.38L36.59,75.38z M67.62,67.99c1.3-2.15,2.44-4.41,3.38-6.67 c0.12-0.29,0.34-0.52,0.6-0.66c2.14-1.43,3.73-3.06,4.73-4.72c0.76-1.26,1.18-2.53,1.25-3.71c0.06-1.11-0.19-2.15-0.77-3.03 c-0.31-0.47-0.71-0.9-1.21-1.28c-0.74,1.69-1.86,3.77-3.27,5.95l-4.5,10.07v0h0C67.86,65.36,67.78,66.71,67.62,67.99L67.62,67.99z M65.96,62.3l4.79-10.71v-9.02c-6.25-2.89-10.34-9.25-12.42-18.82c-2.49,18.2-24.84,17.42-30.46,20.74v5.76l5.55,12.12 c5.38-2.08,10.78-3.37,16.19-3.51C55.06,58.71,60.51,59.74,65.96,62.3L65.96,62.3z M33.75,54.1c-0.4-0.27-0.51-0.82-0.24-1.22 c0.27-0.4,0.82-0.51,1.22-0.24c0.68,0.46,1.83,0.72,3.05,0.71c1.14-0.01,2.32-0.25,3.23-0.78c0.42-0.24,0.96-0.1,1.2,0.32 c0.24,0.42,0.1,0.96-0.32,1.2c-1.19,0.69-2.68,1.01-4.11,1.01C36.23,55.11,34.72,54.75,33.75,54.1L33.75,54.1z M33,49 c-0.4,0.28-0.95,0.19-1.23-0.21c-0.28-0.4-0.19-0.95,0.21-1.23c1.66-1.17,3.35-1.78,5.08-1.78c1.73-0.01,3.46,0.58,5.19,1.78 c0.4,0.28,0.5,0.82,0.22,1.22s-0.82,0.5-1.22,0.22c-1.43-0.99-2.83-1.47-4.19-1.47C35.71,47.55,34.35,48.04,33,49L33,49z M57.71,49 c-0.4,0.28-0.95,0.19-1.23-0.21c-0.28-0.4-0.19-0.95,0.21-1.23c1.66-1.17,3.35-1.78,5.08-1.78c1.73-0.01,3.46,0.58,5.19,1.78 c0.4,0.28,0.5,0.82,0.22,1.22c-0.28,0.4-0.82,0.5-1.22,0.22c-1.43-0.99-2.83-1.47-4.19-1.47C60.43,47.55,59.07,48.04,57.71,49 L57.71,49z"/></g></svg>