<svg id="Layer_1" data-name="Layer 1" xmlns="http://www.w3.org/2000/svg" viewBox="0 0 122.88 111.99"><defs><style>.cls-1{fill-rule:evenodd;}</style></defs><title>man-with-face-mask</title><path class="cls-1" d="M29.73,20.38C44.68,1.91,61.9-8.13,74.84,8.3c14.87.78,21.24,23.34,11,34.47a4.27,4.27,0,0,1,2,.47,3.51,3.51,0,0,1,1.67,2.1,6.82,6.82,0,0,1-.13,3.77l-.06.18c-.18.53-.34,1.23-.5,1.94-.69,3-1.44,6.24-4.83,6.06l-.54-.06c-.12,6-2.95,8.8-6.7,12.33l0,.16-.24.28a43.25,43.25,0,0,0,3.3,4.41h0c6.64,6,23.76,7.18,31.07,11.26A19.3,19.3,0,0,1,117,90.81c4.2,5.55,4.88,11.42,5.72,18.12a5.47,5.47,0,0,1,.18,1.39,1.67,1.67,0,0,1-1.67,1.67H1.67A1.67,1.67,0,0,1,0,110.32a6.05,6.05,0,0,1,.18-1.41C1,102.22,1.7,96.36,5.91,90.81A19.16,19.16,0,0,1,12,85.66c7.08-4,23.2-5.2,30.4-10.7a28.41,28.41,0,0,0,1.37-2.76c.58-1.34,1.13-2.76,1.58-4a15.41,15.41,0,0,1-5.55-11h-.34a4.7,4.7,0,0,1-2.27-.6,6.54,6.54,0,0,1-2.85-4.56,23,23,0,0,1-.1-7.28l.09-.34a4.19,4.19,0,0,1,2.12-2.76c-.39-7.37.86-19-6.71-21.34ZM74.83,72l-.73.88-.67.62a20,20,0,0,1-25.2-1.72l-.62-.58,0,.11,0-.1-.42-.57c-.32.84-.67,1.7-1,2.53a24.5,24.5,0,0,1-2,3.76c7.06,14.31,27.92,14.81,34.68.09a35.74,35.74,0,0,1-4-5ZM57.5,37.81c1.59.6,1.93,1.93,1,2.43s-2.36-.29-3.38-.61c-2.66-.85-5.83-1-8.12.49a12.4,12.4,0,0,0-1.88,1.47,6.61,6.61,0,0,1,1.14-2.28c2.31-2.91,8.12-3.08,11.21-1.5Zm-8.29,5.71a.65.65,0,0,1-.84-.46.79.79,0,0,1,.41-1,10.93,10.93,0,0,1,7.94,0,.78.78,0,0,1,.43.93.64.64,0,0,1-.82.48c-.43-.15-.88-.28-1.31-.39a2.07,2.07,0,0,1,.07.49,1.84,1.84,0,1,1-3.68,0,1.78,1.78,0,0,1,.14-.7,9.6,9.6,0,0,0-2.34.6Zm17-5.71c-1.59.6-1.92,1.93-1,2.43,1,.59,2.36-.29,3.38-.61,2.66-.85,5.82-1,8.13.49a12.87,12.87,0,0,1,1.87,1.47,6.61,6.61,0,0,0-1.14-2.28c-2.31-2.91-8.12-3.08-11.21-1.5Zm3,5.16a1.75,1.75,0,0,0-.13.65,1.84,1.84,0,1,0,3.49-.81,12,12,0,0,1,2.43.53.64.64,0,0,0,.81-.51.78.78,0,0,0-.45-.92,12.59,12.59,0,0,0-4-.65,12.34,12.34,0,0,0-3.92.65.77.77,0,0,0-.45.93.64.64,0,0,0,.81.5A14.1,14.1,0,0,1,69.23,43ZM45.3,63.8l0-.68-.05-.1A30.12,30.12,0,0,1,44,55.12a1.34,1.34,0,0,1,0-.35L39.85,45h0c-1.4-.48-2.28-.65-2.69.35a19.31,19.31,0,0,0,.08,6.1,3.82,3.82,0,0,0,1.42,2.6,1.72,1.72,0,0,0,.84.22,4.4,4.4,0,0,0,1.22-.21,1.55,1.55,0,0,1,.43-.07,1.47,1.47,0,0,1,1.51,1.44A13.49,13.49,0,0,0,45.3,63.8ZM42.64,45.64,46,53.5h0a46.67,46.67,0,0,1,15.6-3.37,34.74,34.74,0,0,1,15.64,3.24l3.54-7.83,0-.11c1.39-8.15.75-13.47-1-17.09a14.56,14.56,0,0,0-6.58-6.53l-.43.31A15.77,15.77,0,0,1,62.3,26.86c-1,.19-2.07.31-3.08.44-3.4.42-6.79.84-11.27,3.94a10.77,10.77,0,0,0-4.27,5.34,13.45,13.45,0,0,0-.19,7.29,1.49,1.49,0,0,1,0,.91,1.51,1.51,0,0,1-.82.86Zm40,1.48-3.38,7.45a.36.36,0,0,1,0,.09,1.15,1.15,0,0,1,.08.41A25.79,25.79,0,0,1,78,63.88l0,.24a11.63,11.63,0,0,0,2.52-9,1.45,1.45,0,0,1,.24-.94,1.47,1.47,0,0,1,2-.42,4,4,0,0,0,.79.41,2.19,2.19,0,0,0,.62.14h0c.91.05,1.37-1.95,1.79-3.76.18-.79.36-1.56.59-2.25a4.18,4.18,0,0,0,.16-2.11.58.58,0,0,0-.27-.37,1.3,1.3,0,0,0-.75-.1,5.2,5.2,0,0,0-2.5,1.11,1.88,1.88,0,0,1-.55.27Z"/></svg>