<svg id="Layer_1" data-name="Layer 1" xmlns="http://www.w3.org/2000/svg" viewBox="0 0 108.38 122.88"><title>medical-safety-suit</title><path d="M76.42,59.73c.07-3.71.35-7.69.62-11.67.56-8,1.12-16,0-21a47.34,47.34,0,0,0-3.41-10.25,29.24,29.24,0,0,0-4.74-7.22A21.92,21.92,0,0,0,67.25,8,19.64,19.64,0,0,0,55.43,2.84V15.47a1.41,1.41,0,0,1-2.81,0V2.87A20,20,0,0,0,40.91,8.13c-.59.54-1.16,1.11-1.69,1.7a29.92,29.92,0,0,0-4.85,7.57A47.09,47.09,0,0,0,31.28,27c-.73,6.27-.16,13.89.4,21.47v0c.28,3.78.56,7.54.68,11.26a1.38,1.38,0,0,1-1.06,1.4c-8.15,2-14.53,4.7-19.23,9S4.39,80.44,2.81,89v31.05H19.69V100a1.41,1.41,0,0,1,2.81,0v20.1h30V61.54l-11.9-3.2a5.43,5.43,0,0,1-2.41-1.29,3.37,3.37,0,0,1-1-2.46V29.77a8.56,8.56,0,0,1,2.52-6.06h0a8.52,8.52,0,0,1,6.06-2.52H62.61a8.52,8.52,0,0,1,6.06,2.52l.08.08a8.55,8.55,0,0,1,2.44,6V54.7a3.28,3.28,0,0,1-1,2.39,5.13,5.13,0,0,1-2.33,1.25l-12,3.2v58.53H85.34V100a1.41,1.41,0,0,1,2.81,0v20.1h17.42V89c-.95-8.73-4-14.39-8.77-18.48S85.31,63.7,77.39,61.14a1.38,1.38,0,0,1-1-1.41ZM40,35.88a4.27,4.27,0,0,1,2.08-.43h7c3.3-2.63,6.68-2.93,10.2,0h7.23a3.87,3.87,0,0,1,1.94.6V29.77a5.76,5.76,0,0,0-1.64-4l-.06-.07A5.75,5.75,0,0,0,62.61,24H45.77a5.77,5.77,0,0,0-4.08,1.7h0A5.75,5.75,0,0,0,40,29.77v6.11Zm28.4,9.73c-7.82,8.35-20.58,8.86-28.4.1v8.88a.63.63,0,0,0,.21.47,2.59,2.59,0,0,0,1.15.57L54.2,59.09l13-3.46a2.51,2.51,0,0,0,1.06-.52.56.56,0,0,0,.18-.41V45.61ZM53.87,0h.28a22.18,22.18,0,0,1,15,5.86A25.39,25.39,0,0,1,71,7.73a32.31,32.31,0,0,1,5.21,7.91,50.9,50.9,0,0,1,3.6,10.85c1.18,5.34.61,13.57,0,21.75-.25,3.65-.51,7.29-.6,10.56,7.8,2.56,14.4,5.27,19.39,9.57,5.27,4.55,8.69,10.78,9.73,20.3a2,2,0,0,1,0,.25v32.56a1.4,1.4,0,0,1-1.4,1.4H1.4a1.4,1.4,0,0,1-1.4-1.4V88.92H0a1.1,1.1,0,0,1,0-.25c1.69-9.3,5-15.8,10.15-20.53,4.86-4.49,11.27-7.32,19.34-9.41-.13-3.2-.38-6.6-.63-10v0c-.57-7.74-1.15-15.52-.38-22.06l0-.13a49.64,49.64,0,0,1,3.3-10.27A32.46,32.46,0,0,1,37.14,8,26.1,26.1,0,0,1,39,6.06,22.51,22.51,0,0,1,53.87,0Z"/></svg>