<?xml version="1.0" encoding="utf-8"?><svg version="1.1" id="Layer_1" xmlns="http://www.w3.org/2000/svg" xmlns:xlink="http://www.w3.org/1999/xlink" x="0px" y="0px" viewBox="0 0 122.88 100.38" style="enable-background:new 0 0 122.88 100.38" xml:space="preserve"><style type="text/css">.st0{fill-rule:evenodd;clip-rule:evenodd;}</style><g><path class="st0" d="M112.29,94.62v3.93c0,1.01-0.82,1.84-1.84,1.84H11.93c-1.01,0-1.84-0.82-1.84-1.84V51.67 c-2.06,0.79-3.97,0.8-5.57,0.27c-1.25-0.42-2.3-1.17-3.07-2.15c-0.77-0.97-1.26-2.16-1.41-3.46C-0.18,44.3,0.43,42,2.15,39.85l0,0 c0.09-0.11,0.19-0.21,0.3-0.3L60.05,0.48c0.65-0.6,1.65-0.66,2.37-0.1l57.71,38.99l0,0c0.08,0.06,0.15,0.13,0.22,0.2 c2.32,2.5,2.9,5.27,2.34,7.62c-0.28,1.15-0.83,2.2-1.59,3.05c-0.76,0.86-1.74,1.52-2.84,1.92c-1.76,0.64-3.84,0.61-5.96-0.39 L112.29,94.62L112.29,94.62L112.29,94.62z M51.22,87.7c4.1,8.55,16.53,8.85,20.46,0.05c-1.07-1.08-1.86-2.24-2.65-3.4 c-0.13-0.19-0.26-0.38-0.39-0.57c-1.9,1.5-4.2,2.46-7.19,2.46c-3.23-0.01-5.67-1.24-7.66-3.07c-0.12-0.11-0.24-0.22-0.35-0.33 c-0.29,0.79-0.65,1.74-1.04,2.63C52.02,86.32,51.61,87.12,51.22,87.7L51.22,87.7L51.22,87.7z M72.84,86.8 c4.38,3.09,15.02,3.84,19.11,6.12c1.3,0.72,2.48,1.64,3.44,2.85h12.29V49.62c0-0.12,0.01-0.24,0.03-0.35L61.62,18.58l-46.97,30.7 c0.04,0.15,0.06,0.31,0.06,0.47v46.01H27.5c0.96-1.22,2.14-2.13,3.44-2.85c4.07-2.27,14.67-3.02,19.07-6.09 c0.32-0.49,0.67-1.19,1.01-1.96c0.5-1.15,0.97-2.41,1.26-3.27c-1.23-1.45-2.28-3.08-3.3-4.7l-3.33-5.3 c-1.22-1.82-1.85-3.48-1.89-4.84c-0.02-0.64,0.09-1.22,0.33-1.74c0.25-0.54,0.63-0.98,1.15-1.33c0.24-0.16,0.51-0.3,0.81-0.41 c-0.22-2.88-0.3-6.5-0.16-9.53c0.07-0.72,0.21-1.44,0.41-2.16c0.85-3.04,2.99-5.49,5.63-7.18c1.46-0.93,3.06-1.63,4.72-2.1 c1.06-0.3-0.9-3.68,0.19-3.8c5.29-0.54,13.86,4.29,17.55,8.29c1.85,2,3.01,4.66,3.26,8.17l-0.21,8.65v0 c0.92,0.28,1.52,0.87,1.76,1.82c0.27,1.05-0.02,2.53-0.91,4.55l0,0c-0.02,0.04-0.03,0.07-0.06,0.11l-3.8,6.26 c-1.4,2.3-2.81,4.6-4.66,6.42c0.17,0.24,0.33,0.48,0.5,0.73c0.75,1.1,1.51,2.21,2.48,3.19C72.78,86.73,72.81,86.76,72.84,86.8 L72.84,86.8L72.84,86.8z M65.41,66.59c-0.28-0.18-0.35-0.56-0.16-0.83c0.18-0.28,0.56-0.35,0.83-0.16c0.33,0.22,0.9,0.34,1.5,0.33 c0.57-0.01,1.14-0.14,1.55-0.4c0.28-0.18,0.65-0.1,0.83,0.18c0.18,0.28,0.1,0.65-0.18,0.83c-0.6,0.39-1.41,0.57-2.18,0.59 C66.77,67.13,65.94,66.95,65.41,66.59L65.41,66.59L65.41,66.59z M52.53,72.72c2.96-1.14,5.92-1.84,8.9-1.92 c2.97-0.08,5.95,0.48,8.92,1.85l3.7-8.18l1.11-4.89c-9.54,1.5-16.68-5.58-26.77-1.42l0.72,6.61L52.53,72.72L52.53,72.72 L52.53,72.72z M75.1,65.34l-3.61,7.99c-0.01,0.02-0.02,0.03-0.02,0.05c0.03,0.07,0.05,0.15,0.05,0.24 c0.03,1.89-0.25,3.56-0.76,5.02c0.72-1.04,1.4-2.15,2.07-3.26l3.76-6.19c0.7-1.6,0.95-2.67,0.79-3.29 c-0.1-0.37-0.51-0.56-1.21-0.59c-0.15-0.01-0.3-0.01-0.46,0c-0.17,0.01-0.34,0.02-0.52,0.03C75.15,65.34,75.12,65.34,75.1,65.34 L75.1,65.34L75.1,65.34z M52.08,78.22c-0.41-1.34-0.66-2.86-0.71-4.58c0-0.07,0.01-0.13,0.02-0.2l-3.72-8.61 c-0.6,0.05-1.07,0.2-1.41,0.42c-0.22,0.15-0.38,0.33-0.48,0.56c-0.11,0.25-0.17,0.55-0.16,0.89c0.03,1.01,0.56,2.34,1.59,3.87 l0.01,0.02l3.33,5.3C51.06,76.67,51.56,77.46,52.08,78.22L52.08,78.22z M61.45,72.12c-2.91,0.07-5.82,0.79-8.74,1.94 c0.26,5.1,2.49,8.24,5.28,9.58c0.29,0.14,0.59,0.26,0.89,0.36c0.78,0.23,1.63,0.35,2.56,0.35c0.46,0,0.91-0.03,1.34-0.08 c0.81-0.15,1.6-0.42,2.35-0.81c2.82-1.47,5-4.67,5.06-9.44C67.27,72.61,64.36,72.04,61.45,72.12L61.45,72.12L61.45,72.12z M53.24,66.59c-0.28-0.18-0.35-0.56-0.16-0.83c0.18-0.28,0.56-0.35,0.83-0.16c0.34,0.23,0.91,0.35,1.52,0.35 c0.58,0,1.17-0.12,1.63-0.39c0.29-0.17,0.65-0.07,0.82,0.22c0.17,0.29,0.07,0.65-0.22,0.82c-0.65,0.38-1.46,0.55-2.22,0.55 C54.6,67.15,53.77,66.95,53.24,66.59L53.24,66.59L53.24,66.59z M53,63.91c-0.27,0.19-0.65,0.13-0.84-0.14 c-0.19-0.27-0.13-0.64,0.14-0.84c0.89-0.63,1.81-0.96,2.75-0.96c0.94,0,1.87,0.31,2.81,0.96c0.27,0.19,0.34,0.56,0.15,0.84 c-0.19,0.27-0.56,0.34-0.84,0.15c-0.73-0.5-1.43-0.75-2.12-0.75C54.38,63.17,53.69,63.42,53,63.91L53,63.91L53,63.91z M65.99,63.91 c-0.27,0.19-0.65,0.13-0.84-0.14c-0.19-0.27-0.13-0.64,0.14-0.84c0.89-0.63,1.81-0.96,2.75-0.96c0.94,0,1.87,0.31,2.81,0.96 c0.27,0.19,0.34,0.56,0.15,0.84c-0.19,0.27-0.56,0.34-0.83,0.15c-0.73-0.5-1.43-0.75-2.12-0.75 C67.36,63.17,66.67,63.42,65.99,63.91L65.99,63.91L65.99,63.91z"/></g></svg>