<svg id="Layer_1" data-name="Layer 1" xmlns="http://www.w3.org/2000/svg" viewBox="0 0 122.88 105.78"><defs><style>.cls-1{fill-rule:evenodd;}</style></defs><title>scissors</title><path class="cls-1" d="M95.36,19.84c11-5.17,20.18-5.08,27.52-.1l-65,37.45a12.92,12.92,0,0,1-7.22,3c-2.42.13-3.29-.56-5.39-.95a7.22,7.22,0,0,0-5.4,1l-1.71,1.56c-1.53,1.39-3.37,2.6-3.07,5,.2,1.58,1.55,2.91,3.69,4.06A15.4,15.4,0,0,1,42.56,76,17.92,17.92,0,0,1,44,82.5c-.39,7.55-3.92,14.07-12.41,19-9.68,6-17.86,5.27-25.18.86C2,98.93,0,94.82,0,90.16,0,83,3.41,77.26,8.73,72.78A73.68,73.68,0,0,1,20.66,65.1l14-10.95.25.85L95.36,19.84Zm0,66.1c11,5.17,20.18,5.08,27.52.1L69.16,55.09,55.53,62.78,95.36,85.94ZM42.29,46.56a7.4,7.4,0,0,1-2.41-1L38.17,44c-1.53-1.39-3.37-2.6-3.07-5,.2-1.59,1.55-2.92,3.69-4.06a15.44,15.44,0,0,0,3.77-5.2A17.86,17.86,0,0,0,44,23.29c-.39-7.55-3.92-14.08-12.41-19C21.93-1.63,13.75-.95,6.43,3.46,2,6.85,0,11,0,15.63,0,22.74,3.41,28.53,8.73,33a73,73,0,0,0,11.93,7.68L34.24,51.31l.6-.35.06-.18.12.08,7.27-4.3ZM32.85,30.43c3.91-2.55,4.31-6.85,2.87-10.95C34.57,16.19,32.1,13.35,28.4,11A21.36,21.36,0,0,0,15.88,7.77c-8.44.77-10,8.29-6.35,14.86a17.07,17.07,0,0,0,7.37,6.92A24.19,24.19,0,0,0,24.44,32a12.16,12.16,0,0,0,8.41-1.56ZM55.08,53.11a3.58,3.58,0,1,1-3.57-3.58,3.57,3.57,0,0,1,3.57,3.58ZM32.85,75.36c3.91,2.55,4.31,6.84,2.87,10.94-1.15,3.3-3.62,6.13-7.32,8.53A21.44,21.44,0,0,1,15.88,98c-8.44-.78-10-8.3-6.35-14.87a17,17,0,0,1,7.37-6.91,23.94,23.94,0,0,1,7.54-2.45,12.16,12.16,0,0,1,8.41,1.57Z"/></svg>